# xmcd CD database file
#
# Track frame offsets:
#	150
#	35224
#	65998
#	94259
#	109076
#	131475
#	170223
#	200063
#	213716
#	237886
#
# Disc length: 3502 seconds
#
# Revision: 3
# Processed by: cddbd v1.5.1PL0 Copyright (c) Steve Scherf et al.
# Submitted via: CDex 1.50
#
DISCID=a40dac0a
DTITLE=Dizzy Gillespie - Impromptu
DYEAR=1954
DGENRE=Jazz
TTITLE0=Impromptu
TTITLE1=It s the talk of the town
TTITLE2=I let a song go out of my heart
TTITLE3=Girl of my dream
TTITLE4=Exactly like you
TTITLE5=Siboney
TTITLE6=It dont mean a thing
TTITLE7=One alone
TTITLE8=Sometimes i m happy
TTITLE9=Pretty eyed baby
EXTD=YEAR: 1954
EXTT0=
EXTT1=
EXTT2=
EXTT3=
EXTT4=
EXTT5=
EXTT6=
EXTT7=
EXTT8=
EXTT9=
PLAYORDER=
